<?xml version="1.0" standalone="yes"?>
<svg xmlns="http://www.w3.org/2000/svg" width="426" height="426">
<path style="fill:#f6fafd; stroke:none;" d="M0 0L0 426L426 426L426 0L0 0z"/>
<path style="fill:#4983af; stroke:none;" d="M197 16.4252C189.986 17.3804 183.367 19.0845 177 22.2701C139.874 40.845 144 79.0342 144 114C144 128.123 139.972 149.536 150.329 160.895C157.612 168.882 169.269 167 179 167C203.988 167 232.375 170.787 257 166.674C290.06 161.154 283.747 119.21 282.09 95C281.157 81.3833 282.947 67.1288 278.301 54C266.389 20.3417 229.112 12.052 197 16.4252z"/>
<path style="fill:#a5c6e7; stroke:none;" d="M186 18L187 19L186 18M183 19L184 20L183 19M241.667 19.3333L242.333 19.6667L241.667 19.3333M180 20L181 21L180 20M244.667 20.3333L245.333 20.6667L244.667 20.3333M177.667 21.3333L178.333 21.6667L177.667 21.3333M247.667 21.3333L248.333 21.6667L247.667 21.3333M175.667 22.3333L176.333 22.6667L175.667 22.3333M250 22L251 23L250 22M174 23L175 24L174 23M252 23L253 24L252 23M172 24L173 25L172 24M254 24L255 25L254 24M171 25L172 26L171 25M255.667 25.3333L256.333 25.6667L255.667 25.3333M169 26L170 27L169 26M257 26L258 27L257 26M168 27L169 28L168 27M259 27L260 28L259 27M167 28L168 29L167 28M260 28L261 29L260 28M165 29L166 30L165 29M261 29L262 30L261 29M164 30L165 31L164 30M163 31L164 32L163 31M162 32L163 33L162 32M265 32L266 33L265 32M161 33L162 34L161 33M266 33L267 34L266 33M160 34L161 35L160 34M159 35L160 36L159 35M158 36L159 37L158 36M268 36L269 37L268 36M157 37L158 38L157 37M269 37L270 38L269 37M270 38L271 39L270 38M155 40L156 41L155 40M271 40L272 41L271 40M154 41L155 42L154 41M272 41L273 42L272 41M153 43L154 44L153 43M273 43L274 44L273 43M152 44L153 45L152 44M274.333 44.6667L274.667 45.3333L274.333 44.6667M151 46L152 47L151 46M275.333 46.6667L275.667 47.3333L275.333 46.6667M150.333 47.6667L150.667 48.3333L150.333 47.6667M276.333 48.6667L276.667 49.3333L276.333 48.6667M149.333 49.6667L149.667 50.3333L149.333 49.6667M148.333 51.6667L148.667 52.3333L148.333 51.6667M277 51L278 52L277 51M278.333 53.6667L278.667 54.3333L278.333 53.6667M147 54L148 55L147 54M146.333 56.6667L146.667 57.3333L146.333 56.6667M279.333 56.6667L279.667 57.3333L279.333 56.6667M145.333 59.6667L145.667 60.3333L145.333 59.6667z"/>
<path style="fill:#0f1133; stroke:none;" d="M100 60L100 98C94.5988 98.0006 87.642 97.3825 83.3935 101.43C76.2982 108.189 76.0396 133.935 83.2245 140.606C91.0051 147.829 111.038 144 121 144L121 112L119.972 99.7423L109 98L109 60L100 60z"/>
<path style="fill:#a5c6e7; stroke:none;" d="M280 60L280 63L281 63L280 60z"/>
<path style="fill:#0f1133; stroke:none;" d="M322 60L322 99L306 99L307 145C316.727 145 335.412 148.653 342.606 140.786C346.818 136.18 346 129.761 346 124C346 111.064 345.979 99.3316 330 99L330 60L322 60z"/>
<path style="fill:#a5c6e7; stroke:none;" d="M144 63L144 66L145 66L144 63M281 67L281 75L282 75L281 67M143 68L143 144L144 144L144 92L143 68M282 85L282 99L283 99L282 85M182 94L182 95L186 95L182 94M238 94L238 95L243 95L238 94M180 95L181 96L180 95z"/>
<path style="fill:#f6fafd; stroke:none;" d="M181.105 95.7431C170.229 100.276 170.946 132.664 188.941 125.397C197.684 121.866 194.876 90.0041 181.105 95.7431z"/>
<path style="fill:#a5c6e7; stroke:none;" d="M188 95L189 96L188 95M236 95L237 96L236 95z"/>
<path style="fill:#f6fafd; stroke:none;" d="M237.185 95.7431C227.48 99.9114 227.263 132.536 244.941 125.397C253.608 121.897 251.075 89.7778 237.185 95.7431z"/>
<path style="fill:#a5c6e7; stroke:none;" d="M244 95L245 96L244 95M189 96L190 97L189 96M245 96L246 97L245 96M190 97L191 98L190 97M234 97L235 98L234 97M246 97L247 98L246 97M177 98L178 99L177 98M191.333 98.6667L191.667 99.3333L191.333 98.6667M233 98L234 99L233 98M247 98L248 99L247 98M176 100L177 101L176 100M232 100L233 101L232 100M248.333 100.667L248.667 101.333L248.333 100.667M192.333 101.667L192.667 102.333L192.333 101.667M175 102L175 105L176 105L175 102M231 103L231 124L232 124L231 103M249 106L249 121L250 121L249 106z"/>
<path style="fill:#61667e; stroke:none;" d="M306 106L306 114L307 114L306 106z"/>
<path style="fill:#a5c6e7; stroke:none;" d="M193 109L193 121L194 121L193 109M306 114L306 123L307 123L306 114M175 121L175 124L176 124L175 121M192 123L193 124L192 123M248 123L249 124L248 123M191 124L192 125L191 124M247 124L248 125L247 124M190 125L191 126L190 125M246 125L247 126L246 125M282 139L282 142L283 142L282 139M281.333 144.667L281.667 145.333L281.333 144.667M144 148L144 151L145 151L144 148M280 148L281 149L280 148M279 150L280 151L279 150M145.333 152.667L145.667 153.333L145.333 152.667M278 152L279 153L278 152M277.333 153.667L277.667 154.333L277.333 153.667M146 155L147 156L146 155M276 155L277 156L276 155M275 156L276 157L275 156M147 157L148 158L147 157M274 157L275 158L274 157M148 158L149 159L148 158M273 158L274 159L273 158M272 159L273 160L272 159M149 160L150 161L149 160M271 160L272 161L271 160M150 161L151 162L150 161M269.667 161.333L270.333 161.667L269.667 161.333M151 162L152 163L151 162M268 162L269 163L268 162M152 163L153 164L152 163M266 163L267 164L266 163M154 164L155 165L154 164M264 164L265 165L264 164M156 165L157 166L156 165M261.667 165.333L262.333 165.667L261.667 165.333M158.667 166.333L159.333 166.667L158.667 166.333M258.667 166.333L259.333 166.667L258.667 166.333M162 167L162 168L255 168L226 167L162 167M223 188L223 220L239 221L239 188L223 188z"/>
<path style="fill:#0f1133; stroke:none;" d="M130 289L130 247C115.844 246.392 96.9839 243.44 85.044 253.39C76.01 260.919 76.7557 277.601 87.0039 283.637C98.7709 290.567 116.873 290.658 130 289z"/>
<path style="fill:#a5c6e7; stroke:none;" d="M154 246L154 287L155 287L155 247L267 247L233 246L154 246z"/>
<path style="fill:#0f1133; stroke:none;" d="M293 247L293 289C306.605 290.719 324.76 290.461 336.907 283.201C346.263 277.608 346.802 260.558 338.812 253.532C327.097 243.232 307.083 246.395 293 247z"/>
<path style="fill:#61667e; stroke:none;" d="M130 247L130 289L131 289C131 277.043 134.611 257.988 130 247z"/>
<path style="fill:#4983af; stroke:none;" d="M155 247L155 287L267 287L267 247L155 247z"/>
<path style="fill:#61667e; stroke:none;" d="M292 247L292 289L293 289C293 277.043 296.611 257.988 292 247z"/>
<path style="fill:#a5c6e7; stroke:none;" d="M86 283L87 284L86 283z"/>
<path style="fill:#4983af; stroke:none;" d="M336 283L337 284L336 283z"/>
<path style="fill:#61667e; stroke:none;" d="M88 284L89 285L88 284M334 284L335 285L334 284z"/>
<path style="fill:#a5c6e7; stroke:none;" d="M335 284L336 285L335 284M89 285L90 286L89 285z"/>
<path style="fill:#61667e; stroke:none;" d="M90 285L91 286L90 285M332 285L333 286L332 285z"/>
<path style="fill:#a5c6e7; stroke:none;" d="M333 285L334 286L333 285z"/>
<path style="fill:#4983af; stroke:none;" d="M92 286L93 287L92 286z"/>
<path style="fill:#61667e; stroke:none;" d="M93 286L94 287L93 286M329 286L330 287L329 286z"/>
<path style="fill:#4983af; stroke:none;" d="M330 286L331 287L330 286M95 287L96 288L95 287z"/>
<path style="fill:#61667e; stroke:none;" d="M96 287L97 288L96 287M326 287L327 288L326 287z"/>
<path style="fill:#4983af; stroke:none;" d="M327 287L328 288L327 287z"/>
<path style="fill:#a5c6e7; stroke:none;" d="M99 288L100 289L99 288z"/>
<path style="fill:#61667e; stroke:none;" d="M100.667 288.333L101.333 288.667L100.667 288.333M321.667 288.333L322.333 288.667L321.667 288.333z"/>
<path style="fill:#4983af; stroke:none;" d="M323 288L324 289L323 288z"/>
<path style="fill:#a5c6e7; stroke:none;" d="M106 289L107 290L106 289z"/>
<path style="fill:#4983af; stroke:none;" d="M107.667 289.333L108.333 289.667L107.667 289.333z"/>
<path style="fill:#61667e; stroke:none;" d="M109 289L109 290L120 290L109 289M304 289L304 290L314 290L304 289z"/>
<path style="fill:#4983af; stroke:none;" d="M314 289L314 290L317 290L314 289z"/>
<path style="fill:#a5c6e7; stroke:none;" d="M103 355L114.821 353.397L117.011 334L120 290L108.179 291.603L106.17 308L103 355M305 290L307.989 335L310.028 353.397L321 355L317 290L305 290z"/>
<path style="fill:#4983af; stroke:none;" d="M141 369L150 410C152.905 410 157.832 410.9 160.262 408.972C164.891 405.298 165.759 389.604 166 384L167 384C167.699 389.505 168.086 405.463 172.6 408.972C175.08 410.9 180.049 410 183 410L193 369C178.548 369.002 178.259 384.464 178 397L177 397L173 369C170.095 369 165.167 368.1 162.738 370.028C157.93 373.845 157.121 391.158 157 397C152.48 384.933 157.119 369.002 141 369M197 369L197 410L206 410L206 369L197 369M214 369L214 410C221.336 410 231.407 411.771 237.985 407.91C245.582 403.451 246.002 392.947 238 389C250.6 368.969 228.044 369 214 369M251 369C251 379.156 248.048 394.878 253.417 403.906C259.017 413.321 276.65 411.963 281.91 402.985C286.963 394.361 284 378.709 284 369L275 369C275 375.995 278.556 400.481 267.988 401.534C256.57 402.672 260 375.475 260 369L251 369z"/>
<path style="fill:#f6fafd; stroke:none;" d="M223 376L223 385C233.662 384.742 233.662 376.258 223 376M223 392L223 403C235.589 402.73 235.472 392.571 223 392z"/>
</svg>
